<?xml version="1.0" encoding="UTF-8"?>
<!DOCTYPE svg PUBLIC "-//W3C//DTD SVG 1.1//EN" "http://www.w3.org/Graphics/SVG/1.1/DTD/svg11.dtd">
<!-- Creator: CorelDRAW 2021 (64 Bit) -->
<svg xmlns="http://www.w3.org/2000/svg" xml:space="preserve" width="139.326mm" height="143.154mm" version="1.1" style="shape-rendering:geometricPrecision; text-rendering:geometricPrecision; image-rendering:optimizeQuality; fill-rule:evenodd; clip-rule:evenodd"
viewBox="0 0 3040.54 3124.09"
 xmlns:xlink="http://www.w3.org/1999/xlink"
 xmlns:xodm="http://www.corel.com/coreldraw/odm/2003">
 <defs>
  <style type="text/css">
   <![CDATA[
    .fil0 {fill:#00151D;fill-rule:nonzero}
   ]]>
  </style>
 </defs>
 <g id="Camada_x0020_1">
  <metadata id="CorelCorpID_0Corel-Layer"/>
  <g id="_2532137501920">
   <path class="fil0" d="M1520.27 2764.9c-640.21,0 -1161.09,-539.6 -1161.09,-1202.84 0,-663.27 520.87,-1202.88 1161.09,-1202.88 640.22,0 1161.09,539.6 1161.09,1202.88 0,663.24 -520.87,1202.84 -1161.09,1202.84zm0 -2764.9c-838.27,0 -1520.27,700.74 -1520.27,1562.06 0,861.29 682,1562.03 1520.27,1562.03 838.27,0 1520.27,-700.74 1520.27,-1562.03 0,-861.32 -682,-1562.06 -1520.27,-1562.06z"/>
   <path class="fil0" d="M1520.27 1940.03c-92.45,-131.08 -184.89,-262.15 -277.33,-393.23 69.52,-18.89 164.23,-37.41 277.33,-39.05 113.11,1.65 207.81,20.16 277.33,39.05 -92.45,131.08 -184.89,262.15 -277.33,393.23zm742.79 -1053.13l-251.01 355.85c-110.66,-33.12 -213.99,-56.45 -313.11,-70.26l0 -604.99c-58,-10.65 -117.7,-16.22 -178.68,-16.22 -60.97,0 -120.66,5.57 -178.68,16.22l0 604.99c-99.11,13.81 -202.45,37.14 -313.11,70.26l-251.01 -355.85c-86.17,96.85 -154.24,210.6 -198.82,335.64l941.61 1350.26c313.88,-450.09 627.73,-900.16 941.61,-1350.26 -44.57,-125.05 -112.65,-238.79 -198.82,-335.64z"/>
  </g>
 </g>
</svg>
